<?xml version="1.0" standalone="no"?><svg xmlns="http://www.w3.org/2000/svg" viewBox="0 0 1440 320"><path fill="#0099ff" fill-opacity="1" d="M0,0L26.7,32C53.3,64,107,128,160,170.7C213.3,213,267,235,320,218.7C373.3,203,427,149,480,117.3C533.3,85,587,75,640,96C693.3,117,747,171,800,192C853.3,213,907,203,960,208C1013.3,213,1067,235,1120,218.7C1173.3,203,1227,149,1280,106.7C1333.3,64,1387,32,1413,16L1440,0L1440,0L1413.3,0C1386.7,0,1333,0,1280,0C1226.7,0,1173,0,1120,0C1066.7,0,1013,0,960,0C906.7,0,853,0,800,0C746.7,0,693,0,640,0C586.7,0,533,0,480,0C426.7,0,373,0,320,0C266.7,0,213,0,160,0C106.7,0,53,0,27,0L0,0Z"></path></svg>